<svg xmlns="http://www.w3.org/2000/svg" width="289.897" height="69.164" viewBox="0 0 289.897 69.164"><defs><style>.a{fill:#01a0c6;}.b{fill:#111183;}.c{stroke:#000;stroke-width:0.25px;}.c,.d{font-size:9px;font-family:SegoeUI-Light, Segoe UI;font-weight:300;}.e,.f{fill:none;}.e{stroke:#01a0c6;stroke-width:1.06px;}.f{stroke:#111183;}</style></defs><g transform="translate(-10.992 10.992)"><path class="a" d="M11.6,67l3.541-2.538a13.6,13.6,0,0,0,4.312,4.593A10.3,10.3,0,0,0,25.2,70.766a9.543,9.543,0,0,0,6.708-2.383,7.729,7.729,0,0,0,2.6-5.957,8.9,8.9,0,0,0-1.692-5.633,12.922,12.922,0,0,0-5.559-3.706L22.465,51.17a32.709,32.709,0,0,1-6.828-3.555,11.11,11.11,0,0,1-3.486-4.131,12.158,12.158,0,0,1-1.158-5.348,15.6,15.6,0,0,1,1.853-7.073,13.307,13.307,0,0,1,5.56-5.708A17.5,17.5,0,0,1,27.025,23.3a18.438,18.438,0,0,1,9.1,2.172,16.224,16.224,0,0,1,6.326,6.553l-3.263,2q-3.626-6.919-10.112-6.919a7.994,7.994,0,0,0-7.022,12.662,10.581,10.581,0,0,0,4.814,3.479l5.754,2.268a22.563,22.563,0,0,1,6.729,3.5,12.111,12.111,0,0,1,3.688,4.439,13.632,13.632,0,0,1,1.31,6.049,13.939,13.939,0,0,1-4.9,10.78q-4.9,4.4-12.794,4.405a19.178,19.178,0,0,1-6.243-.974,19.063,19.063,0,0,1-5.56-3.1A14.974,14.974,0,0,1,11.6,67" transform="translate(0 -29.019)"/><path class="a" d="M293.333,131.53v2.685H280.079a1.825,1.825,0,0,0-1.428.443,3.465,3.465,0,0,0-.385,2v9.418h12.409v3.246H278.266v10.622a2.535,2.535,0,0,0,.626,1.844,2.451,2.451,0,0,0,1.832.64H294.3v2.645H276.888a6.555,6.555,0,0,1-3.122-.642,4.084,4.084,0,0,1-1.794-1.943,9.6,9.6,0,0,1-.6-3.87V137.984A8.6,8.6,0,0,1,272.1,134a4.094,4.094,0,0,1,2.065-1.9,14.826,14.826,0,0,1,5.016-.561Z" transform="translate(-221.964 -121.282)"/><path class="a" d="M455.21,164.628V131H468.3q5.559,0,7.854,1.523a8.68,8.68,0,0,1,4.07,7.7,7.663,7.663,0,0,1-1.853,5.29,9.327,9.327,0,0,1-5.4,2.766l9.147,16.354H473.94l-8.419-16.838a12.908,12.908,0,0,0,4.311-.621,4.749,4.749,0,0,0,2.638-2.285,9.1,9.1,0,0,0,.907-4.351,8.221,8.221,0,0,0-.988-4.448,5.739,5.739,0,0,0-2.679-2.226,13.259,13.259,0,0,0-4.868-.7q-.724,0-2.577.121l-.08,31.346Z" transform="translate(-378.683 -120.831)"/><path class="a" d="M642,131h7.819l8.409,27.656a2.133,2.133,0,0,0,.384.822.537.537,0,0,0,.382.18.81.81,0,0,0,.564-.218,2.558,2.558,0,0,0,.484-1.065L668.061,131h3.426l-7.819,26.616q-1.449,4.894-2.9,6.233a5.445,5.445,0,0,1-3.836,1.344,5.859,5.859,0,0,1-3.886-1.261q-1.511-1.261-2.549-4.795Z" transform="translate(-537.916 -120.831)"/><path class="b" d="M881.1,18.984a4.311,4.311,0,0,1-1.371,3.188,4.49,4.49,0,0,1-3.263,1.343,4.343,4.343,0,0,1-3.2-1.363,4.533,4.533,0,0,1-1.35-3.327,4.392,4.392,0,0,1,4.426-4.41,4.662,4.662,0,0,1,3.364,1.345,4.322,4.322,0,0,1,1.39,3.225" transform="translate(-733.91 -21.445)"/><rect class="a" width="6.851" height="33.43" transform="translate(138.969 10.367)"/><path class="b" d="M934.407,57.226c1.263.052,2.338.077,2.933.077a23.447,23.447,0,0,0,8.036-1.095,9.737,9.737,0,0,0,4.61-3.555,11.865,11.865,0,0,0,1.735-6.918,12.762,12.762,0,0,0-1.574-6.611,8.7,8.7,0,0,0-4.389-3.766,24.322,24.322,0,0,0-8.418-1.114h-1.672V31.9h8.6a24.137,24.137,0,0,1,8.862,1.475,12.468,12.468,0,0,1,5.96,4.824,14.079,14.079,0,0,1,2.213,7.955,13.626,13.626,0,0,1-2.256,8.114A12.423,12.423,0,0,1,952.5,58.8q-4.293,1.381-13.72,1.382c-.351,0-1.918-.01-4.382-.037Z" transform="translate(-787.178 -36.351)"/><path class="b" d="M1106.784,67.957h-9.747L1091.6,55.2h-17.479l-5.076,12.761h-4.472l20.706-50.387ZM1082.815,33.98l-7.377,17.948h14.821Z" transform="translate(-898.144 -24.135)"/><path class="b" d="M1371.47,32.942l-2.858,2.191a25.28,25.28,0,0,0-4.475-5.093,15.994,15.994,0,0,0-5.093-2.747,18.475,18.475,0,0,0-5.943-1,16.042,16.042,0,0,0-7.612,1.807,17.336,17.336,0,0,0-5.763,4.868,18.94,18.94,0,0,0-3.321,6.934,33.377,33.377,0,0,0-.989,8.262q0,10.761,5.164,16.448a16.189,16.189,0,0,0,12.407,5.69,18.036,18.036,0,0,0,7.27-1.518,18.886,18.886,0,0,0,6.063-4.172,19.3,19.3,0,0,0,3.426-5L1373,61.193a20.782,20.782,0,0,1-3.786,5.765,22.591,22.591,0,0,1-7.956,5.225,26.555,26.555,0,0,1-9.885,1.846,26.321,26.321,0,0,1-18.794-7.573,27.284,27.284,0,0,1-5.358-7.672,23.363,23.363,0,0,1-2.034-10.051,25.738,25.738,0,0,1,3.486-13.13,23.911,23.911,0,0,1,9.747-9.321,28.055,28.055,0,0,1,13.278-3.3,24.037,24.037,0,0,1,8.3,1.343,23.247,23.247,0,0,1,6.4,3.5,36.473,36.473,0,0,1,5.073,5.11" transform="translate(-1120.315 -28.746)"/><path class="b" d="M1675.92,31.9h8.983V80.173h-8.983Zm29.329,0h5.435l-16.917,20.678,18.6,27.6h-10.758l-16.228-24.331Z" transform="translate(-1419.302 -36.351)"/><path class="b" d="M1932.521,29.818a3.613,3.613,0,0,1-.305,1.517,3.37,3.37,0,0,1-.823,1.126,3.639,3.639,0,0,1-1.2.7,4.257,4.257,0,0,1-1.435.243,4.186,4.186,0,0,1-1.421-.243,3.623,3.623,0,0,1-1.2-.7,3.465,3.465,0,0,1-.829-1.126,3.856,3.856,0,0,1,0-3.029,3.468,3.468,0,0,1,.829-1.13,3.619,3.619,0,0,1,1.2-.7,4.15,4.15,0,0,1,1.421-.243,4.221,4.221,0,0,1,1.436.243,3.637,3.637,0,0,1,1.2.7,3.375,3.375,0,0,1,.823,1.13,3.63,3.63,0,0,1,.308,1.512m-.947,0a3.035,3.035,0,0,0-.208-1.135,2.568,2.568,0,0,0-.581-.885,2.62,2.62,0,0,0-.885-.565,3.345,3.345,0,0,0-2.266,0,2.508,2.508,0,0,0-.885.565,2.588,2.588,0,0,0-.578.885,2.98,2.98,0,0,0-.206,1.135,3.02,3.02,0,0,0,.206,1.14,2.567,2.567,0,0,0,.578.885,2.508,2.508,0,0,0,.885.565,3.345,3.345,0,0,0,2.266,0,2.62,2.62,0,0,0,.885-.565,2.547,2.547,0,0,0,.581-.885,3.082,3.082,0,0,0,.208-1.14m-1.943,1.837q-.221-.416-.443-.758a5.306,5.306,0,0,0-.412-.569h-.59v1.328h-.915v-3.62a4.686,4.686,0,0,1,.664-.109q.328-.031.578-.031a2.481,2.481,0,0,1,1.368.308,1.033,1.033,0,0,1,.463.931.983.983,0,0,1-.18.59,1.146,1.146,0,0,1-.516.392c.147.192.295.413.466.664a6.825,6.825,0,0,1,.491.872Zm-1.438-2h.307a1.809,1.809,0,0,0,.676-.1.413.413,0,0,0,.251-.422.4.4,0,0,0-.236-.392,1.366,1.366,0,0,0-.59-.114h-.192a1.314,1.314,0,0,0-.212.021Z" transform="translate(-1631.632 -31.517)"/><g transform="translate(49.406 -10.742)"><text class="c" transform="translate(0 10)"><tspan x="0" y="0">E M B A L A J E S</tspan></text><text class="d" transform="translate(79.232 10)"><tspan x="0" y="0"> </tspan></text></g><text class="d" transform="translate(107.296 56.173)"><tspan x="0" y="0" xml:space="preserve">F I L M   S T R E T C H</tspan></text><line class="e" x2="79.72" transform="translate(15.195 53.07)"/><line class="f" x2="79.72" transform="translate(210.953 53.07)"/></g></svg>